<?xml version="1.0" encoding="utf-8"?>
<!-- Generator: Adobe Illustrator 16.0.3, SVG Export Plug-In . SVG Version: 6.00 Build 0)  -->
<!DOCTYPE svg PUBLIC "-//W3C//DTD SVG 1.1//EN" "http://www.w3.org/Graphics/SVG/1.1/DTD/svg11.dtd">
<svg version="1.1" id="a5c16198-98a1-478b-8909-43624583dcf2"
	 xmlns="http://www.w3.org/2000/svg" xmlns:xlink="http://www.w3.org/1999/xlink" x="0px" y="0px" width="793px" height="551.731px"
	 viewBox="0 0 793 551.731" enable-background="new 0 0 793 551.731" xml:space="preserve">
<ellipse fill="#E6E6E6" cx="158" cy="539.731" rx="158" ry="12"/>
<path fill="#997753" d="M120.772,122.419c27.497-11.695,61.744-4.285,95.19,0.858c0.312-6.229,4.084-13.808,0.132-18.153
	c-4.801-5.278-4.359-10.825-1.47-16.403c7.388-14.265-3.197-29.444-13.884-42.065c-4.886-5.756-12.225-8.837-19.755-8.292
	l-19.797,1.414c-9.865,0.705-18.257,7.459-21.053,16.946l0,0c-4.727,6.429-7.257,12.841-5.664,19.219
	c-7.081,4.839-8.271,10.68-5.089,17.264c2.698,4.146,2.669,8.182-0.123,12.105c-3.667,5.003-6.475,10.581-8.31,16.506
	L120.772,122.419z"/>
<path fill="#2F2E41" d="M774.209,476.963H213.791c-10.378,0-18.791-8.414-18.791-18.791l0,0l0,0
	c203.151-23.611,402.484-23.611,598,0l0,0C793,468.549,784.587,476.963,774.209,476.963L774.209,476.963z"/>
<path fill="#3F3D56" d="M793,459.278l-598-1.105l69.306-116.615l0.332-0.553V83.996c-0.001-13.118,10.632-23.753,23.75-23.754
	c0.001,0,0.003,0,0.004,0h407.9c13.118-0.001,23.753,10.632,23.754,23.75c0,0.001,0,0.003,0,0.004v258.776L793,459.278z"/>
<path fill="#FFFFFF" d="M287.851,76.822c-4.271,0.005-7.733,3.466-7.738,7.738v234.337c0.005,4.271,3.466,7.732,7.738,7.736h412.299
	c4.271-0.004,7.732-3.465,7.738-7.736V84.56c-0.006-4.271-3.467-7.732-7.738-7.738H287.851z"/>
<path fill="#2F2E41" d="M289.578,357.584c-1.294,0.002-2.47,0.754-3.013,1.93L265.21,405.94c-0.766,1.662-0.038,3.633,1.626,4.398
	c0.435,0.199,0.908,0.303,1.386,0.303h449.091c1.832,0,3.316-1.484,3.316-3.316c0-0.514-0.12-1.021-0.351-1.482l-23.212-46.426
	c-0.559-1.125-1.709-1.836-2.966-1.832H289.578z"/>
<circle fill="#FFFFFF" cx="492.342" cy="67.979" r="4.974"/>
<path fill="#2F2E41" d="M448.2,419.485c-1.499,0.002-2.811,1.006-3.202,2.453l-5.356,19.896c-0.477,1.768,0.57,3.588,2.339,4.064
	c0.281,0.076,0.571,0.113,0.862,0.113h101.874c1.831,0,3.315-1.484,3.315-3.314c0-0.369-0.062-0.736-0.183-1.086l-6.887-19.896
	c-0.463-1.336-1.721-2.23-3.134-2.23H448.2z"/>
<polygon fill="#2F2E41" points="720.046,337.135 720.046,341.555 264.306,341.555 264.649,341.004 264.649,337.135 "/>
<circle fill="#FFD073" cx="707.335" cy="77.375" r="77.375"/>
<path fill="#FFFFFF" d="M739.39,111.089h-64.11c-2.441-0.002-4.419-1.98-4.422-4.422V67.979c0.003-2.44,1.981-4.419,4.422-4.421
	h64.11c2.441,0.002,4.419,1.981,4.422,4.421v38.688C743.81,109.108,741.831,111.086,739.39,111.089z M675.279,67.979v38.688h64.114
	l-0.004-38.688H675.279z"/>
<path fill="#FFFFFF" d="M727.231,67.979h-39.793V50.294c0-12.81,8.367-22.107,19.896-22.107c11.528,0,19.896,9.297,19.896,22.107
	V67.979z M691.859,63.558h30.95V50.294c0-10.413-6.363-17.686-15.475-17.686s-15.476,7.272-15.476,17.686V63.558z"/>
<circle fill="#FFFFFF" cx="707.335" cy="86.218" r="4.421"/>
<path fill="#E6E6E6" d="M653.319,247.149H334.68c-3.257-0.004-5.897-2.644-5.901-5.9v-79.041c0.004-3.258,2.644-5.897,5.901-5.901
	h318.639c3.258,0.003,5.897,2.643,5.901,5.901v79.041C659.217,244.506,656.577,247.146,653.319,247.149z M334.68,158.667
	c-1.955,0.002-3.539,1.586-3.541,3.541v79.041c0.002,1.954,1.586,3.538,3.541,3.54h318.639c1.955-0.002,3.539-1.586,3.541-3.54
	v-79.041c-0.002-1.955-1.586-3.539-3.541-3.541L334.68,158.667z"/>
<circle fill="#E6E6E6" cx="384.19" cy="198.696" r="24.036"/>
<path fill="#E6E6E6" d="M439.703,182.671c-2.213-0.004-4.01,1.786-4.014,3.999c-0.004,2.212,1.786,4.009,3.998,4.014
	c0.005,0,0.011,0,0.016,0h188.857c2.213,0,4.007-1.794,4.007-4.006s-1.794-4.006-4.007-4.006H439.703z"/>
<path fill="#E6E6E6" d="M439.703,206.708c-2.213,0-4.006,1.793-4.006,4.006c0,2.212,1.793,4.006,4.006,4.006h81.266
	c2.213,0,4.007-1.793,4.007-4.006c0-2.213-1.794-4.006-4.007-4.006H439.703z"/>
<path fill="#FED1BD" d="M263.522,208.328l-58.903,31.315l-0.746-26.096c19.226-3.209,37.517-8.797,54.43-17.895l6.16-15.22
	c2.138-5.282,8.153-7.831,13.435-5.692c1.598,0.646,3.008,1.683,4.102,3.015l0,0c3.448,4.197,3.051,10.35-0.908,14.069
	L263.522,208.328z"/>
<path fill="#353433" d="M119.598,389.133L119.598,389.133c-0.869-3.188-0.334-6.596,1.469-9.363l12.939-19.857
	c6.34-9.73,19.02-13.076,29.335-7.74l0,0c-5.438,9.256-4.68,17.377,1.878,24.434c-10.181,4.971-19.59,11.385-27.936,19.045
	c-5.282,3.602-12.482,2.238-16.083-3.043C120.478,391.545,119.936,390.372,119.598,389.133z"/>
<path fill="#F2E9DB" d="M266.205,363.168L266.205,363.168c-3.982,6.637-11.132,10.721-18.871,10.779l-85.96,0.65l-3.728-21.621
	l38.026-11.186l-32.062-24.605l35.044-41.007l63.649,59.324C269.971,342.649,271.597,354.182,266.205,363.168z"/>
<path fill="#F2E9DB" d="M147.953,511.045h-20.131c-18.075-123.898-36.474-248.142,17.895-294.516l64.122,10.438l-8.201,54.429
	l-35.79,41.01L147.953,511.045z"/>
<path fill="#353433" d="M165.649,539.112L165.649,539.112c-3.188,0.869-6.595,0.334-9.363-1.469l-21.858-2.938
	c-9.73-6.34-13.077-19.02-7.741-29.336l0,0c9.257,5.438,17.377,4.68,24.434-1.879c4.986,10.066,13.201,9.453,21.046,17.936
	c3.601,5.281,2.239,12.48-3.042,16.082C168.063,538.231,166.888,538.774,165.649,539.112z"/>
<path fill="#FED1BD" d="M195.672,133.768l-37.281-8.947c6.192-12.674,6.702-26.776,3.728-41.754l25.351-0.746
	C188.264,100.946,190.667,118.347,195.672,133.768z"/>
<path fill="#FC8B93" d="M205.917,249.418c-27.139,18.493-46.314,0.633-60.947-26.923c2.034-16.862-1.259-37.041-7.357-58.966
	c-5.622-20.048,5.02-41.065,24.506-48.401l0,0l32.061,13.421c27.224,22.19,32.582,46.228,22.369,71.579L205.917,249.418z"/>
<path fill="#FED1BD" d="M127.821,152.407l-29.824,15.658l52.938,31.315l7.366,18.169c2,4.932-0.377,10.552-5.31,12.551
	c-0.158,0.064-0.318,0.124-0.479,0.18l0,0c-5.031,1.735-10.517-0.938-12.252-5.969c-0.286-0.831-0.458-1.698-0.51-2.576
	l-0.745-12.663L71.722,186.87c-4.594-1.516-8.234-5.061-9.873-9.611l0,0c-2.424-6.733,0.002-14.254,5.903-18.303l54.105-37.119
	L127.821,152.407z"/>
<path fill="#FC8B93" d="M157.646,155.39c-12.438-5.451-23.749,0.471-38.026,5.22l-2.237-39.518
	c14.176-7.556,27.692-9.593,40.263-3.728V155.39z"/>
<circle fill="#FED1BD" cx="172.525" cy="78.093" r="23.802"/>
<path fill="#997753" d="M201,75.089c-23.566,2.308-41.523-1.546-53-12.52v-8.838h51L201,75.089z"/>
</svg>
